<svg xmlns="http://www.w3.org/2000/svg" viewBox="0 0 180.9 130.19"><defs><style>.cls-1{isolation:isolate;}.cls-2{fill:#d8d8d8;}.cls-3{fill:#51a2ff;}.cls-4{fill:#f2ebdd;}.cls-5{fill:#cec1a3;opacity:0.3;}.cls-5,.cls-6{mix-blend-mode:multiply;}.cls-6{fill:#ac8746;opacity:0.4;}.cls-7{fill:none;stroke:#f2ebdd;stroke-linecap:round;stroke-miterlimit:10;stroke-width:2px;}</style></defs><g class="cls-1"><g id="Layer_2" data-name="Layer 2"><g id="OBJECTS"><polygon class="cls-2" points="58.66 71.72 87.93 21.97 72.66 0 17.41 24.22 0 78.72 24.22 102.94 39.36 67.37 53.74 130.19 88.79 100.54 58.66 71.72"/><polygon class="cls-3" points="108.24 0 163.49 24.22 180.9 78.72 156.68 102.94 141.54 67.37 127.16 130.19 58.28 71.91 108.24 0"/><path class="cls-4" d="M74.93,69.64a5,5,0,1,1-5-5A5,5,0,0,1,74.93,69.64Z"/><polygon class="cls-5" points="39.36 67.37 17.41 24.22 0 78.72 39.36 67.37"/><polygon class="cls-6" points="141.54 67.37 163.49 24.22 180.9 78.72 141.54 67.37"/><line class="cls-7" x1="69.92" y1="69.64" x2="129.05" y2="69.64"/></g></g></g></svg>