<svg xmlns="http://www.w3.org/2000/svg" viewBox="0 0 153.87 180.61"><defs><style>.cls-1{isolation:isolate;}.cls-2{fill:#000035;}.cls-3{fill:#2847fb;}.cls-4,.cls-5,.cls-6{fill:#eba08c;}.cls-5,.cls-6{mix-blend-mode:multiply;}.cls-6{opacity:0.2;}.cls-7{opacity:0.38;}.cls-8{fill:#fff;}.cls-9{fill:none;stroke:#000035;stroke-miterlimit:10;}</style></defs><g class="cls-1"><g id="Layer_2" data-name="Layer 2"><g id="OBJECTS"><path class="cls-2" d="M137.8,139.82c-.2-.63-6.08-51.31-10.74-91.58C123.86,20.46,101.66-.29,75.51,0h0C49.19.3,27.33,21.83,24.88,49.87l-8.11,92.75Z"/><path class="cls-3" d="M137.29,136.13c-7.32-5.49-23.32-9.71-34.66-14.52l-.5-.22c-1.38-.6-2.69-1.2-3.9-1.82-.54-.27-1-.55-1.54-.83-3.21-1.81-5.52-3.74-6.31-5.87-.08-.22-.16-.44-.23-.66a57.65,57.65,0,0,1-26.29-.41c-.12.36-.24.72-.37,1.07-.89,2.4-3.68,4.53-7.53,6.54l-1.09.56c-1.06.52-2.21,1-3.39,1.54l-2,.81c-11.19,4.52-26,8.59-32.94,13.81C5.26,144.62,0,180.61,0,180.61H153.87S148.61,144.62,137.29,136.13Z"/><path class="cls-4" d="M90.15,112.21c-3.14-9.13-1.83-19.15-1.83-19.15l-11.38.78-12.2-.78s2,9.72-.88,18.74A57.65,57.65,0,0,0,90.15,112.21Z"/><path class="cls-4" d="M116.25,53.19c0,22.77-14.48,50-41.23,50S33.79,76,33.79,53.19a41.23,41.23,0,1,1,82.46,0Z"/><path class="cls-2" d="M38.38,55.56a24.67,24.67,0,0,0,3.8-10.06c.7-3.93.85-8.2-1.08-11.7a6.31,6.31,0,0,0-2.51-2.63,5.67,5.67,0,0,0-6.06,1,12,12,0,0,0-3.3,5.54c-2,6-1.86,12.59-.73,18.8.54,3,.43,5.2,3.86,3.88A13.65,13.65,0,0,0,38.38,55.56Z"/><path class="cls-2" d="M113.38,55.56a24.67,24.67,0,0,1-3.8-10.06c-.7-3.93-.85-8.2,1.08-11.7a6.31,6.31,0,0,1,2.51-2.63,5.67,5.67,0,0,1,6.06,1,12,12,0,0,1,3.3,5.54c2,6,1.86,12.59.73,18.8-.54,3-.43,5.2-3.86,3.88A13.65,13.65,0,0,1,113.38,55.56Z"/><path class="cls-4" d="M127.2,60.12a14.92,14.92,0,0,1-4.24,7.7,11.23,11.23,0,0,1-4.79,3,5.74,5.74,0,0,1-5-.81,7.43,7.43,0,0,1-2.46-4.33,15.86,15.86,0,0,1,2.77-12.1c1.7-2.42,4.11-4.39,6.71-4.71C125.41,48.18,128.18,54.92,127.2,60.12Z"/><path class="cls-5" d="M112.48,66.25A6.84,6.84,0,0,0,116,65a1.25,1.25,0,0,0,.64-1,1.14,1.14,0,0,0-.25-.61,11,11,0,0,0-2.61-2.78,22.6,22.6,0,0,1,2.6-4.79A6.9,6.9,0,0,1,120.73,53a3.9,3.9,0,0,1,4.19,2.3s2.28,4.81-3.08,10C116.18,70.82,112.48,66.25,112.48,66.25Z"/><path class="cls-2" d="M124.92,55.31c-1.34-2.41-4.5-2.38-6.4-.74s-3,4-4.13,6.31l-.2-.77a10.69,10.69,0,0,1,2.5,2.78c1.77,2.39-2.52,3.5-4.21,3.36,1.34-.3,3-1,3.74-2.12a.42.42,0,0,0-.06-.25,11.65,11.65,0,0,0-3.14-3c1.12-2.64,2.3-5.53,4.81-7.22,2.23-1.77,6.31-1.35,7.09,1.69Z"/><path class="cls-4" d="M21.7,60.12a14.92,14.92,0,0,0,4.24,7.7,11.23,11.23,0,0,0,4.79,3,5.74,5.74,0,0,0,5-.81,7.43,7.43,0,0,0,2.46-4.33,15.86,15.86,0,0,0-2.77-12.1c-1.7-2.42-4.12-4.39-6.71-4.71C23.49,48.18,20.72,54.92,21.7,60.12Z"/><path class="cls-5" d="M36.42,66.25A6.91,6.91,0,0,1,32.86,65a1.23,1.23,0,0,1-.63-1,1.13,1.13,0,0,1,.24-.61,11.2,11.2,0,0,1,2.62-2.78,22.6,22.6,0,0,0-2.6-4.79A6.9,6.9,0,0,0,28.17,53a3.92,3.92,0,0,0-4.2,2.3s-2.27,4.81,3.09,10C32.72,70.82,36.42,66.25,36.42,66.25Z"/><path class="cls-2" d="M24,55.31c.79-3,4.87-3.46,7.1-1.69,2.51,1.69,3.69,4.58,4.81,7.22a11.65,11.65,0,0,0-3.14,3,.36.36,0,0,0-.06.25c.7,1.17,2.4,1.82,3.74,2.12-1.69.14-6-1-4.21-3.36a10.69,10.69,0,0,1,2.5-2.78l-.2.77c-1.08-2.31-2.13-4.72-4.13-6.31s-5.07-1.67-6.41.74Z"/><path class="cls-2" d="M48.18,50.62c3.28-6.95,12-13.21,19.85-10.29l0,.2c-5.64,1-11.37,2-15.79,5.87a19.59,19.59,0,0,0-3.85,4.31l-.18-.09Z"/><path class="cls-2" d="M104.26,50.71c-4.45-7-11.92-9-19.64-10.18l0-.2C90.54,38,97,41.42,101.11,45.67a18.64,18.64,0,0,1,3.33,4.95l-.18.09Z"/><path class="cls-2" d="M64.75,78.18c10,9.07,17.77,8.12,26.42-2-6.58,11.93-18.23,13.1-26.42,2Z"/><path class="cls-2" d="M55.26,97.32c6.79,4,14.57,6.51,22.42,6.27,7.86-.39,15-4.58,21-9.56-5.11,6.29-12.68,11-21,11.5a33,33,0,0,1-22.51-8.21Z"/><ellipse class="cls-6" cx="98.03" cy="68.55" rx="8.71" ry="6.61"/><ellipse class="cls-6" cx="55.79" cy="68.55" rx="8.71" ry="6.61"/><path class="cls-2" d="M76.05,51.47c1.81,7.72,4.16,15.7,5.84,23.45l.16.71-.7,0a62.63,62.63,0,0,1-6.85-.1,59.46,59.46,0,0,1,6.76-1.09l-.53.74c-2-7.8-4.2-15.68-4.68-23.74Z"/><path class="cls-2" d="M35.47,28.7c2.9,4.26,6.83,8.37,11.93,9.08,1.07.14,2.43-.05,2.76-1.07a2.61,2.61,0,0,0,0-1.33A56.55,56.55,0,0,0,47,25.57c1.85,2.64,4.8,4.27,7.71,5.66a97.92,97.92,0,0,0,13.48,5.24,30.32,30.32,0,0,0,11.21,1.71c.93-.07,2.11-.51,2.06-1.45a1.92,1.92,0,0,0-.49-1L76.21,29.5c2.66,2.18,6,3.25,9.32,4.23,9.87,2.94,20.45,5.49,30.36,2.66-4.81-12.82-14.43-24.7-27-30A39,39,0,0,0,73.62,3C68,3,62.4,4.57,57.06,6.45c-4.89,1.72-9.75,3.77-13.85,7A34.17,34.17,0,0,0,31.5,31.71"/><path class="cls-2" d="M55,56.39c-.8-5.8,7-9,10.67-4.38A5.31,5.31,0,0,1,67,56.59c-2-6.23-9.73-6.36-11.95-.2Z"/><path class="cls-2" d="M87.4,56.39c-.8-5.8,7-9,10.67-4.38a5.28,5.28,0,0,1,1.28,4.58c-2-6.23-9.72-6.36-11.95-.2Z"/><g class="cls-7"><path class="cls-8" d="M51.48,14.39a35.87,35.87,0,0,0,19.94,13.5L71,28.5c-3.44-5.09-7-10.08-10.86-14.89l.75-.63a47.46,47.46,0,0,0,44.66,14.18,43.24,43.24,0,0,1-12.26,1.49,46.41,46.41,0,0,1-33.13-15l.75-.62c4,5.15,7.82,10.45,11.33,15.94A35.06,35.06,0,0,1,51.48,14.39Z"/><path class="cls-8" d="M69,6.35a40.11,40.11,0,0,0,31.12,11c1.42-.14,3.45-.45,4.84-.72l-2.36.7-2.42.5-2.45.3A34.08,34.08,0,0,1,69,6.35Z"/><path class="cls-8" d="M120.85,73.29c2.11,18.28,4.39,38.59,6.4,56.89a421.46,421.46,0,0,1-6.4-56.89Z"/><path class="cls-8" d="M110.28,88.14a242.35,242.35,0,0,1,2,31.4,242.35,242.35,0,0,1-2-31.4Z"/><path class="cls-8" d="M101.92,98.23A115.46,115.46,0,0,1,103,115.05a49.33,49.33,0,0,1-1.12-16.82Z"/><path class="cls-8" d="M53.14,102.44a35.59,35.59,0,0,1,0,12,35.33,35.33,0,0,1,0-12Z"/><path class="cls-8" d="M38,84.77a294.56,294.56,0,0,1-1.93,41.78c.25-13.69.94-28.11,1.93-41.78Z"/><path class="cls-8" d="M29,80.29c-.17,15.69-1,31.47-2.55,47.1.18-15.7,1-31.48,2.55-47.1Z"/></g><path class="cls-9" d="M62.64,115a54.31,54.31,0,0,0,28.76-.6"/><path class="cls-2" d="M30.85,138.61a43.94,43.94,0,0,0-1.36,36.53c.61,1.45,1.62,3.49,2.38,4.87-.51-.75-1-1.51-1.51-2.27L29,175.34l-1.11-2.5a37.94,37.94,0,0,1,2.92-34.23Z"/><path class="cls-2" d="M125.43,138.61a38,38,0,0,1,2.92,34.23l-1.11,2.5-1.33,2.4c-.49.76-1,1.52-1.5,2.27.75-1.36,1.77-3.41,2.38-4.87a44,44,0,0,0-1.36-36.53Z"/></g></g></g></svg>