<svg xmlns="http://www.w3.org/2000/svg" viewBox="0 0 153.87 184.82"><defs><style>.cls-1{isolation:isolate;}.cls-2,.cls-4,.cls-5{fill:#eba08c;}.cls-3{fill:#000035;}.cls-4,.cls-5{mix-blend-mode:multiply;}.cls-4{opacity:0.2;}.cls-6{fill:#fff;}.cls-7{fill:#2847fb;}.cls-8,.cls-9{fill:none;stroke-miterlimit:10;}.cls-8{stroke:#000035;}.cls-9{stroke:#fff;}.cls-10{opacity:0.28;}</style></defs><g class="cls-1"><g id="Layer_2" data-name="Layer 2"><g id="OBJECTS"><path class="cls-2" d="M88.83,111.33a50.32,50.32,0,0,1-.51-14.06l-11.38.79-12.2-.79a43.7,43.7,0,0,1,.14,14.52A54.24,54.24,0,0,0,88.83,111.33Z"/><path class="cls-2" d="M116.25,57.4c0,22.77-14.48,49.95-41.23,49.95S33.79,80.17,33.79,57.4,40.78,8.77,75,8.77,116.25,34.63,116.25,57.4Z"/><path class="cls-3" d="M48.1,52.78a18.55,18.55,0,0,1,3.09-5.23,20.1,20.1,0,0,1,4.73-4.07c.46-.27.91-.54,1.36-.83l1.41-.77c.5-.22,1-.41,1.51-.58A13.92,13.92,0,0,1,61.79,41,9.46,9.46,0,0,1,68,42.45l-.05.39c-2,.85-3.75,1.38-5.45,2a8.39,8.39,0,0,1-1.27.38,11.19,11.19,0,0,1-1.3.31l-1.32.3c-.44.13-.87.28-1.3.43A22.14,22.14,0,0,0,52.53,49a20,20,0,0,0-4.09,4Z"/><path class="cls-3" d="M88.41,56.05a3.67,3.67,0,1,0,3.67-3.67A3.66,3.66,0,0,0,88.41,56.05Z"/><path class="cls-3" d="M104.18,53a19.71,19.71,0,0,0-4.09-4,21.91,21.91,0,0,0-4.82-2.72c-.43-.15-.86-.3-1.29-.43l-1.33-.3a11.69,11.69,0,0,1-1.3-.31,8.39,8.39,0,0,1-1.27-.38c-1.7-.59-3.42-1.12-5.45-2l0-.39A9.44,9.44,0,0,1,90.84,41a14.15,14.15,0,0,1,1.58.29,15.2,15.2,0,0,1,1.51.58l1.41.77c.45.29.91.56,1.36.83a19.9,19.9,0,0,1,4.73,4.07,18.32,18.32,0,0,1,3.09,5.23Z"/><path class="cls-3" d="M63.75,80.39A28.35,28.35,0,0,0,70.17,85a15.9,15.9,0,0,0,3.59,1.34,14.82,14.82,0,0,0,1.86.34,10.51,10.51,0,0,0,1.86,0,10,10,0,0,0,3.61-.91,16.74,16.74,0,0,0,3.32-1.92,34.92,34.92,0,0,0,5.76-5.4,21.72,21.72,0,0,1-5.06,6.29,13.16,13.16,0,0,1-7.53,3.39,11.78,11.78,0,0,1-4.18-.47,14.93,14.93,0,0,1-3.78-1.68A19.34,19.34,0,0,1,63.75,80.39Z"/><path class="cls-3" d="M55.26,101.54a55.55,55.55,0,0,0,11,3.73,47,47,0,0,0,11.36,1.16,32.13,32.13,0,0,0,11-2.51,49.9,49.9,0,0,0,10.1-5.68,32.36,32.36,0,0,1-9.48,7.05,30.84,30.84,0,0,1-5.6,2.15,27.91,27.91,0,0,1-6,.93,38.19,38.19,0,0,1-11.81-1.64A34.64,34.64,0,0,1,55.26,101.54Z"/><path class="cls-4" d="M106.74,70.76c0,3.65-3.9,6.61-8.71,6.61s-8.7-3-8.7-6.61,3.89-6.6,8.7-6.6S106.74,67.12,106.74,70.76Z"/><path class="cls-4" d="M64.5,70.76c0,3.65-3.9,6.61-8.71,6.61s-8.7-3-8.7-6.61,3.89-6.6,8.7-6.6S64.5,67.12,64.5,70.76Z"/><path class="cls-3" d="M117.37,63.67c-8.33-8.21-12.23-20-13-31.69a57.58,57.58,0,0,1-31.89,7.39c-11-.7-21.2-4-30-10.65,0,7.09-.06,14.28-1.87,21.13S35,63.31,28.9,67c-4.37-17-1-40.81,9.52-54.83.19-4.09,3.28-10,7.67-12.07a.66.66,0,0,1,.62,0c.22.13.23.45.2.71a14.39,14.39,0,0,1-1.76,5.49,18.17,18.17,0,0,1,5.51-4.81A5,5,0,0,1,53.8.62a9.56,9.56,0,0,1-2.15,4A60.51,60.51,0,0,1,87,1.49c8.85,1.85,17.6,6,23,13.24a40.54,40.54,0,0,1,5.06,9.7C120.21,37.75,120.28,49.71,117.37,63.67Z"/><path class="cls-2" d="M127.2,64.33A14.88,14.88,0,0,1,123,72a11.13,11.13,0,0,1-4.79,3,5.74,5.74,0,0,1-5-.81,7.41,7.41,0,0,1-2.46-4.32,15.89,15.89,0,0,1,2.77-12.11c1.7-2.41,4.11-4.38,6.71-4.71C125.41,52.39,128.18,59.13,127.2,64.33Z"/><path class="cls-5" d="M112.48,70.46A6.76,6.76,0,0,0,116,69.18a1.23,1.23,0,0,0,.64-1,1.17,1.17,0,0,0-.25-.61,11.15,11.15,0,0,0-2.61-2.78,22.6,22.6,0,0,1,2.6-4.79,7,7,0,0,1,4.32-2.82,3.91,3.91,0,0,1,4.19,2.3s2.28,4.81-3.08,10C116.18,75,112.48,70.46,112.48,70.46Z"/><path class="cls-3" d="M124.92,59.52a3.77,3.77,0,0,0-3.08-1.91,5,5,0,0,0-3.32,1.17,10.26,10.26,0,0,0-2.38,2.84,37.48,37.48,0,0,0-1.75,3.47l-.2-.77A11.4,11.4,0,0,1,116,66.08a11.91,11.91,0,0,1,.72,1,3.88,3.88,0,0,1,.33.59,1.17,1.17,0,0,1,0,.92,2.06,2.06,0,0,1-1,1,6.11,6.11,0,0,1-1.14.51,6,6,0,0,1-2.4.33,7.5,7.5,0,0,0,2.2-.79,9.27,9.27,0,0,0,.95-.64c.3-.23.56-.49.59-.69a.39.39,0,0,0-.06-.24,4.44,4.44,0,0,0-.3-.42c-.23-.3-.48-.58-.74-.86a10.8,10.8,0,0,0-1.69-1.48l-.41-.28.21-.49A26.5,26.5,0,0,1,115,60.93a9.85,9.85,0,0,1,2.83-3.1,5.41,5.41,0,0,1,4.12-1A3.82,3.82,0,0,1,124.92,59.52Z"/><path class="cls-2" d="M21.7,64.33A14.88,14.88,0,0,0,25.94,72a11.13,11.13,0,0,0,4.79,3,5.74,5.74,0,0,0,5-.81,7.41,7.41,0,0,0,2.46-4.32,15.89,15.89,0,0,0-2.77-12.11c-1.7-2.41-4.12-4.38-6.71-4.71C23.49,52.39,20.72,59.13,21.7,64.33Z"/><path class="cls-5" d="M36.42,70.46a6.82,6.82,0,0,1-3.56-1.28,1.22,1.22,0,0,1-.63-1,1.16,1.16,0,0,1,.24-.61,11.38,11.38,0,0,1,2.62-2.78A22.6,22.6,0,0,0,32.49,60a7,7,0,0,0-4.32-2.82,3.93,3.93,0,0,0-4.2,2.3s-2.27,4.81,3.09,10C32.72,75,36.42,70.46,36.42,70.46Z"/><path class="cls-3" d="M24,59.52a3.84,3.84,0,0,1,3-2.67,5.42,5.42,0,0,1,4.13,1,9.85,9.85,0,0,1,2.83,3.1,26.5,26.5,0,0,1,1.77,3.64l.21.49-.41.28a10.8,10.8,0,0,0-1.69,1.48c-.26.28-.51.56-.74.86a4.44,4.44,0,0,0-.3.42.33.33,0,0,0-.06.24c0,.2.29.46.59.69a9.27,9.27,0,0,0,.95.64,7.4,7.4,0,0,0,2.2.79,6.5,6.5,0,0,1-3.55-.84,2.08,2.08,0,0,1-1-1,1.22,1.22,0,0,1,0-.92,4.91,4.91,0,0,1,.34-.59c.22-.35.46-.7.71-1a11.92,11.92,0,0,1,1.79-1.76l-.2.77a37.48,37.48,0,0,0-1.75-3.47,10.26,10.26,0,0,0-2.38-2.84,5,5,0,0,0-3.32-1.17A3.78,3.78,0,0,0,24,59.52Z"/><path class="cls-3" d="M54.87,124.18c-1.64.8-3.45,1.59-5.35,2.36-11.19,4.51-26,8.59-32.94,13.8C5.26,148.83,0,184.82,0,184.82H69.12a596.39,596.39,0,0,0-10.81-62.53C57.27,122.93,56.12,123.56,54.87,124.18Z"/><path class="cls-2" d="M78.72,135.31c.39,0,.68-.35.91-.65A193.55,193.55,0,0,0,90.83,118a6.6,6.6,0,0,1-.45-.93,35.42,35.42,0,0,1-1.55-5.76,54.24,54.24,0,0,1-24,.46,29.4,29.4,0,0,1-1.39,5.3,6.33,6.33,0,0,1-.75,1.36l15.07,16.31A1.33,1.33,0,0,0,78.72,135.31Z"/><path class="cls-3" d="M137.29,140.34c-7.32-5.49-23.32-9.71-34.66-14.52-1.57-.66-3-1.34-4.4-2l-.3-.16a424.78,424.78,0,0,0-11.07,61.19h67S148.61,148.83,137.29,140.34Z"/><path class="cls-6" d="M90.83,118a193.55,193.55,0,0,1-11.2,16.64c-.23.3-.52.64-.91.65a1.33,1.33,0,0,1-.91-.55L62.74,118.45a14.72,14.72,0,0,1-4.43,3.84,596.39,596.39,0,0,1,10.81,62.53H86.86a424.78,424.78,0,0,1,11.07-61.19C94.58,121.88,92,120,90.83,118Z"/><path class="cls-3" d="M90.37,117.74c1.54,1.23,3,2.45,4.53,3.56s3.12,2.13,4.75,3.23a14.37,14.37,0,0,1-9.28-6.79Z"/><path class="cls-3" d="M57.65,122.83c1.24-1.33,2.61-2.4,3.85-3.59a19.66,19.66,0,0,0,3.32-4,6.25,6.25,0,0,1-.91,2.56A10,10,0,0,1,62.19,120,14.62,14.62,0,0,1,57.65,122.83Z"/><polygon class="cls-7" points="70.34 141.04 75.58 149.18 68.53 179.55 69.12 184.82 86.86 184.82 87.52 179.91 81.55 149.72 86.97 141.4 78.72 135.31 70.34 141.04"/><path class="cls-8" d="M61.48,146.82c.36-.54,17.24-11.51,17.24-11.51l17.66,13.32"/><line class="cls-9" x1="40.58" y1="129.09" x2="60.33" y2="184.59"/><line class="cls-9" x1="114.08" y1="129.09" x2="94.33" y2="184.59"/><g class="cls-10"><path class="cls-6" d="M38.6,12.8A40.67,40.67,0,0,0,53.76,25.66,43.33,43.33,0,0,0,73,30.29a36.4,36.4,0,0,0,19.09-4.84,28.27,28.27,0,0,0,7.5-6.5,25.08,25.08,0,0,0,4.68-8.82A24.28,24.28,0,0,1,100,19.25a28.66,28.66,0,0,1-7.49,6.86A36.52,36.52,0,0,1,73,31.29a43.39,43.39,0,0,1-19.6-4.94,42.24,42.24,0,0,1-8.33-5.8A36.67,36.67,0,0,1,38.6,12.8Z"/><path class="cls-6" d="M48.67,8.79a28.48,28.48,0,0,0,4.78,2.83,26.12,26.12,0,0,0,5.2,1.83,26.49,26.49,0,0,0,10.89.37,27.32,27.32,0,0,0,10.14-4A25.39,25.39,0,0,0,84,6.34a9.71,9.71,0,0,0,2.81-4.67,9.49,9.49,0,0,1-2.45,5,26,26,0,0,1-4.2,3.78,25.8,25.8,0,0,1-10.41,4.36,24.92,24.92,0,0,1-11.26-.62A24.44,24.44,0,0,1,48.67,8.79Z"/><path class="cls-6" d="M113.23,22.09a83,83,0,0,0-1.64,8.16,35.21,35.21,0,0,0-.22,8.2,23.66,23.66,0,0,0,2.16,7.85,18.33,18.33,0,0,0,5,6.43,14.48,14.48,0,0,1-3.27-2.63,18.7,18.7,0,0,1-2.47-3.45,21.32,21.32,0,0,1-2.47-8.1,29,29,0,0,1,.47-8.42A43.75,43.75,0,0,1,113.23,22.09Z"/><path class="cls-6" d="M33.56,21.26A20,20,0,0,1,35.43,25a23,23,0,0,1,1.1,4,21.5,21.5,0,0,1-3.46,16,22.79,22.79,0,0,1-2.66,3.21,20.43,20.43,0,0,1-3.23,2.58,24.72,24.72,0,0,0,2.87-2.92,22.41,22.41,0,0,0,2.37-3.28,24.2,24.2,0,0,0,3-7.46,24.46,24.46,0,0,0,.37-8A26.13,26.13,0,0,0,33.56,21.26Z"/></g><path class="cls-3" d="M77.22,53a79.65,79.65,0,0,0,1.61,8.25,5.1,5.1,0,0,0,.72,1.7A6.31,6.31,0,0,0,81,64.12a8.19,8.19,0,0,1,2.91,3.51,7.83,7.83,0,0,1-1.58,8.58,8.15,8.15,0,0,1-3.86,2.19,11.05,11.05,0,0,1-4.28.18c2.8-.2,5.61-1.12,7.27-3.15a7,7,0,0,0-1.29-10.17,7.28,7.28,0,0,1-1.69-1.58,5.59,5.59,0,0,1-.8-2.22A34.64,34.64,0,0,1,77.22,53Z"/><path class="cls-3" d="M56.58,58.89a19.32,19.32,0,0,1,5-1.52,23.2,23.2,0,0,1,5.2-.3l-.6,1.23a11.88,11.88,0,0,0-4.42-3,14.2,14.2,0,0,0-5.46-1,9.72,9.72,0,0,1,5.85-.1,11.54,11.54,0,0,1,2.78,1.19,9.59,9.59,0,0,1,2.36,2l1.14,1.34-1.74-.11a46.12,46.12,0,0,0-5-.06C60,58.56,58.3,58.72,56.58,58.89Z"/></g></g></g></svg>