<?xml version="1.0" encoding="UTF-8"?>
<!DOCTYPE svg PUBLIC "-//W3C//DTD SVG 1.1//EN" "http://www.w3.org/Graphics/SVG/1.1/DTD/svg11.dtd">
<svg xmlns="http://www.w3.org/2000/svg" version="1.1" width="1920px" height="1080px" style="shape-rendering:geometricPrecision; text-rendering:geometricPrecision; image-rendering:optimizeQuality; fill-rule:evenodd; clip-rule:evenodd" xmlns:xlink="http://www.w3.org/1999/xlink">
<g><path style="opacity:0.981" fill="#e21736" d="M 680.5,36.5 C 765.833,36.5 851.167,36.5 936.5,36.5C 942.966,60.3343 948.966,84.3343 954.5,108.5C 939.828,108.222 925.161,107.722 910.5,107C 824.326,100.982 737.992,95.4817 651.5,90.5C 651.491,88.6916 651.991,87.0249 653,85.5C 662.171,69.1577 671.337,52.8243 680.5,36.5 Z"/></g>
<g><path style="opacity:0.99" fill="#e21836" d="M 1662.5,97.5 C 1662.59,99.8477 1663.59,101.514 1665.5,102.5C 1668.03,107.823 1670.03,113.49 1671.5,119.5C 1670.11,120.947 1670.45,121.947 1672.5,122.5C 1678.68,159.267 1673.35,194.1 1656.5,227C 1650.94,237.275 1644.94,247.108 1638.5,256.5C 1637.17,256.5 1636.5,257.167 1636.5,258.5C 1611.39,292.787 1579.39,319.12 1540.5,337.5C 1536.92,338.239 1533.92,339.905 1531.5,342.5C 1515.13,350.355 1498.13,356.855 1480.5,362C 1515.16,370.053 1540.99,389.553 1558,420.5C 1561.08,427.982 1563.41,435.649 1565,443.5C 1567.13,469.409 1563.63,494.409 1554.5,518.5C 1552.45,519.053 1552.11,520.053 1553.5,521.5C 1550.93,528.883 1547.6,535.883 1543.5,542.5C 1541.95,542.821 1541.29,543.821 1541.5,545.5C 1535.69,556.311 1528.69,566.311 1520.5,575.5C 1518.95,575.821 1518.29,576.821 1518.5,578.5C 1509.61,588.264 1500.28,597.597 1490.5,606.5C 1488.82,606.285 1487.82,606.952 1487.5,608.5C 1464.13,627.491 1438.8,643.658 1411.5,657C 1392.2,665.099 1372.7,672.599 1353,679.5C 1333.51,685.004 1313.68,689.504 1293.5,693C 1285.34,693.546 1277.34,694.546 1269.5,696C 1116.17,696.5 962.834,696.667 809.5,696.5C 809.679,694.046 809.013,691.879 807.5,690C 808.923,688.588 808.756,687.421 807,686.5C 800.646,661.771 794.146,636.938 787.5,612C 787.645,611.228 787.978,610.561 788.5,610C 864.742,604.731 941.075,599.231 1017.5,593.5C 1019.55,589.754 1021.89,586.254 1024.5,583C 942.236,577.828 859.903,572.828 777.5,568C 775.237,562.219 773.237,556.386 771.5,550.5C 771.709,549.914 772.043,549.414 772.5,549C 770.204,542.276 768.204,535.442 766.5,528.5C 767.885,527.053 767.552,526.053 765.5,525.5C 764.075,519.542 762.408,513.542 760.5,507.5C 761.124,507.083 761.457,506.416 761.5,505.5C 761.253,504.287 760.586,503.62 759.5,503.5C 757.69,494.268 755.19,485.268 752,476.5C 750.985,472.56 750.485,468.56 750.5,464.5C 765.842,464.333 781.176,463.833 796.5,463C 896.111,457.03 995.777,451.03 1095.5,445C 1098.23,444.818 1100.89,444.318 1103.5,443.5C 1105.64,440.707 1107.64,437.874 1109.5,435C 1108.83,434.333 1108.17,433.667 1107.5,433C 896.784,420.91 686.451,407.743 476.5,393.5C 476.5,392.5 476.5,391.5 476.5,390.5C 477.5,390.5 478.5,390.5 479.5,390.5C 479.5,389.5 479.5,388.5 479.5,387.5C 487.835,372.823 496.168,358.156 504.5,343.5C 506.048,343.179 506.715,342.179 506.5,340.5C 506.953,339.542 507.619,338.708 508.5,338C 729.33,324.17 949.997,310.17 1170.5,296C 1177.12,294.952 1183.78,294.119 1190.5,293.5C 1190.86,292.817 1191.2,292.15 1191.5,291.5C 1193.05,291.179 1193.71,290.179 1193.5,288.5C 1193.7,286.956 1194.37,285.622 1195.5,284.5C 1190.76,283.886 1186.09,283.053 1181.5,282C 1120.35,277.701 1059.01,273.868 997.5,270.5C 998.031,267.763 998.864,265.096 1000,262.5C 1010.53,246.726 1020.03,230.393 1028.5,213.5C 1030.05,213.179 1030.71,212.179 1030.5,210.5C 1040.49,193.185 1050.49,175.852 1060.5,158.5C 1070.92,157.215 1081.25,156.048 1091.5,155C 1153.71,151.905 1215.71,148.072 1277.5,143.5C 1278.45,139.39 1280.45,135.89 1283.5,133C 1283.17,132.667 1282.83,132.333 1282.5,132C 1216.17,128.555 1150.17,124.055 1084.5,118.5C 1084.35,117.448 1084.52,116.448 1085,115.5C 1093.77,100.951 1102.27,86.2845 1110.5,71.5C 1112.05,71.1788 1112.71,70.1788 1112.5,68.5C 1117.75,57.7527 1123.75,47.4193 1130.5,37.5C 1268.83,36.3333 1407.17,36.1667 1545.5,37C 1561.84,39.7828 1578.17,43.1161 1594.5,47C 1604.88,50.4303 1614.88,54.7637 1624.5,60C 1640.74,69.0733 1653.41,81.5733 1662.5,97.5 Z M 1449.5,191.5 C 1450.11,192.391 1450.44,193.391 1450.5,194.5C 1454.25,220.76 1446.58,242.926 1427.5,261C 1409.41,275.831 1388.74,284.831 1365.5,288C 1345.67,288.952 1325.84,289.786 1306,290.5C 1299.17,290.167 1292.33,289.833 1285.5,289.5C 1289.44,283.271 1293.11,276.937 1296.5,270.5C 1297.4,269.71 1298.07,268.71 1298.5,267.5C 1313.97,240.617 1329.64,213.283 1345.5,185.5C 1346.4,184.71 1347.07,183.71 1347.5,182.5C 1350.87,177.611 1353.87,172.444 1356.5,167C 1378.5,166.333 1400.5,166.333 1422.5,167C 1435.87,170.546 1444.87,178.712 1449.5,191.5 Z M 1305.5,425.5 C 1306.17,426.167 1306.83,426.833 1307.5,427.5C 1318.56,435.8 1323.9,446.967 1323.5,461C 1320.3,489.302 1306.63,510.969 1282.5,526C 1249.06,544.848 1213.06,552.015 1174.5,547.5C 1162.17,547.167 1149.83,546.833 1137.5,546.5C 1137.62,545.893 1137.96,545.56 1138.5,545.5C 1139.4,544.71 1140.07,543.71 1140.5,542.5C 1149.03,527.545 1157.36,512.545 1165.5,497.5C 1166.5,497.167 1167.17,496.5 1167.5,495.5C 1172.1,487.209 1176.76,478.876 1181.5,470.5C 1182.4,469.71 1183.07,468.71 1183.5,467.5C 1185.07,465.357 1186.41,463.024 1187.5,460.5C 1188.4,459.71 1189.07,458.71 1189.5,457.5C 1196.21,446.376 1202.54,435.042 1208.5,423.5C 1209.4,422.71 1210.07,421.71 1210.5,420.5C 1223.94,419.184 1237.61,418.518 1251.5,418.5C 1264.83,418.667 1278.17,418.833 1291.5,419C 1296.49,420.496 1301.16,422.662 1305.5,425.5 Z"/></g>
<g><path style="opacity:0.184" fill="#ef0f20" d="M 1112.5,68.5 C 1112.71,70.1788 1112.05,71.1788 1110.5,71.5C 1110.93,70.2905 1111.6,69.2905 1112.5,68.5 Z"/></g>
<g><path style="opacity:0.259" fill="#f30916" d="M 1662.5,97.5 C 1664.05,98.7682 1665.05,100.435 1665.5,102.5C 1663.59,101.514 1662.59,99.8477 1662.5,97.5 Z"/></g>
<g><path style="opacity:0.529" fill="#ee0c1f" d="M 1671.5,119.5 C 1671.56,120.609 1671.89,121.609 1672.5,122.5C 1670.45,121.947 1670.11,120.947 1671.5,119.5 Z"/></g>
<g><path style="opacity:0.976" fill="#e21735" d="M 993.5,256.5 C 992.115,257.947 992.448,258.947 994.5,259.5C 995.903,262.909 996.57,266.575 996.5,270.5C 852.423,261.07 708.423,251.57 564.5,242C 563.576,241.15 563.576,240.15 564.5,239C 572.069,225.77 579.402,212.936 586.5,200.5C 588.048,200.179 588.715,199.179 588.5,197.5C 590.638,194.122 592.638,190.622 594.5,187C 719.624,179.496 844.624,171.662 969.5,163.5C 977.357,194.431 985.357,225.431 993.5,256.5 Z"/></g>
<g><path style="opacity:0.118" fill="#f30915" d="M 1347.5,182.5 C 1347.07,183.71 1346.4,184.71 1345.5,185.5C 1345.29,183.821 1345.95,182.821 1347.5,182.5 Z"/></g>
<g><path style="opacity:0.569" fill="#ee0c1d" d="M 1449.5,191.5 C 1451.55,192.053 1451.89,193.053 1450.5,194.5C 1450.44,193.391 1450.11,192.391 1449.5,191.5 Z"/></g>
<g><path style="opacity:0.259" fill="#f50711" d="M 588.5,197.5 C 588.715,199.179 588.048,200.179 586.5,200.5C 586.932,199.29 587.599,198.29 588.5,197.5 Z"/></g>
<g><path style="opacity:0.243" fill="#f60711" d="M 1030.5,210.5 C 1030.71,212.179 1030.05,213.179 1028.5,213.5C 1028.93,212.29 1029.6,211.29 1030.5,210.5 Z"/></g>
<g><path style="opacity:0.392" fill="#f20b19" d="M 993.5,256.5 C 993.557,257.609 993.89,258.609 994.5,259.5C 992.448,258.947 992.115,257.947 993.5,256.5 Z"/></g>
<g><path style="opacity:0.031" fill="#f9040a" d="M 1638.5,256.5 C 1638.17,257.5 1637.5,258.167 1636.5,258.5C 1636.5,257.167 1637.17,256.5 1638.5,256.5 Z"/></g>
<g><path style="opacity:0.047" fill="#f20a16" d="M 1298.5,267.5 C 1298.07,268.71 1297.4,269.71 1296.5,270.5C 1296.29,268.821 1296.95,267.821 1298.5,267.5 Z"/></g>
<g><path style="opacity:0.471" fill="#ef0c1d" d="M 1193.5,288.5 C 1193.71,290.179 1193.05,291.179 1191.5,291.5C 1191.93,290.29 1192.6,289.29 1193.5,288.5 Z"/></g>
<g><path style="opacity:0.086" fill="#eb1026" d="M 1540.5,337.5 C 1540.53,338.497 1540.03,339.164 1539,339.5C 1536.46,340.535 1533.96,341.535 1531.5,342.5C 1533.92,339.905 1536.92,338.239 1540.5,337.5 Z"/></g>
<g><path style="opacity:0.424" fill="#ef0d1f" d="M 506.5,340.5 C 506.715,342.179 506.048,343.179 504.5,343.5C 504.932,342.29 505.599,341.29 506.5,340.5 Z"/></g>
<g><path style="opacity:0.035" fill="#f40813" d="M 479.5,387.5 C 479.5,388.5 479.5,389.5 479.5,390.5C 478.5,390.5 477.5,390.5 476.5,390.5C 477.5,389.5 478.5,388.5 479.5,387.5 Z"/></g>
<g><path style="opacity:0.188" fill="#f30a18" d="M 1210.5,420.5 C 1210.07,421.71 1209.4,422.71 1208.5,423.5C 1208.29,421.821 1208.95,420.821 1210.5,420.5 Z"/></g>
<g><path style="opacity:0.008" fill="#ef0c1c" d="M 1305.5,425.5 C 1305.56,424.957 1305.89,424.624 1306.5,424.5C 1307.39,425.325 1307.72,426.325 1307.5,427.5C 1306.83,426.833 1306.17,426.167 1305.5,425.5 Z"/></g>
<g><path style="opacity:0.016" fill="#f8040d" d="M 1189.5,457.5 C 1189.07,458.71 1188.4,459.71 1187.5,460.5C 1187.29,458.821 1187.95,457.821 1189.5,457.5 Z"/></g>
<g><path style="opacity:0.975" fill="#e21736" d="M 748.5,464.5 C 749.659,467.253 749.159,469.919 747,472.5C 734.339,493.819 721.672,515.153 709,536.5C 704.209,545.083 699.709,553.75 695.5,562.5C 597.068,556.442 498.401,550.942 399.5,546C 395.642,545.921 391.976,545.254 388.5,544C 398.826,526.391 409.159,508.724 419.5,491C 466.296,486.578 512.963,482.578 559.5,479C 622.87,475.192 685.87,470.359 748.5,464.5 Z"/></g>
<g><path style="opacity:0.039" fill="#f40813" d="M 1183.5,467.5 C 1183.07,468.71 1182.4,469.71 1181.5,470.5C 1181.29,468.821 1181.95,467.821 1183.5,467.5 Z"/></g>
<g><path style="opacity:0.102" fill="#f7060f" d="M 1167.5,495.5 C 1167.17,496.5 1166.5,497.167 1165.5,497.5C 1165.5,496.167 1166.17,495.5 1167.5,495.5 Z"/></g>
<g><path style="opacity:0.282" fill="#f10c1b" d="M 759.5,503.5 C 760.586,503.62 761.253,504.287 761.5,505.5C 761.457,506.416 761.124,507.083 760.5,507.5C 760.567,506.041 760.234,504.708 759.5,503.5 Z"/></g>
<g><path style="opacity:0.376" fill="#f00c1d" d="M 1554.5,518.5 C 1553.89,519.391 1553.56,520.391 1553.5,521.5C 1552.11,520.053 1552.45,519.053 1554.5,518.5 Z"/></g>
<g><path style="opacity:0.553" fill="#ef0d1d" d="M 765.5,525.5 C 767.552,526.053 767.885,527.053 766.5,528.5C 766.443,527.391 766.11,526.391 765.5,525.5 Z"/></g>
<g><path style="opacity:0.02" fill="#fa0309" d="M 1140.5,542.5 C 1140.07,543.71 1139.4,544.71 1138.5,545.5C 1138.29,543.821 1138.95,542.821 1140.5,542.5 Z"/></g>
<g><path style="opacity:0.031" fill="#f50810" d="M 1543.5,542.5 C 1543.07,543.71 1542.4,544.71 1541.5,545.5C 1541.29,543.821 1541.95,542.821 1543.5,542.5 Z"/></g>
<g><path style="opacity:0.039" fill="#f60812" d="M 1520.5,575.5 C 1520.07,576.71 1519.4,577.71 1518.5,578.5C 1518.29,576.821 1518.95,575.821 1520.5,575.5 Z"/></g>
<g><path style="opacity:0.008" fill="#f10e1d" d="M 1490.5,606.5 C 1489.71,607.401 1488.71,608.068 1487.5,608.5C 1487.82,606.952 1488.82,606.285 1490.5,606.5 Z"/></g>
<g><path style="opacity:0.973" fill="#e11836" d="M 659.5,624.5 C 657.952,624.821 657.285,625.821 657.5,627.5C 644.206,650.142 630.873,672.808 617.5,695.5C 512.502,696.5 407.502,696.833 302.5,696.5C 303.957,692.906 305.457,689.239 307,685.5C 310.929,678.86 314.762,672.193 318.5,665.5C 320.048,665.179 320.715,664.179 320.5,662.5C 324.62,655.763 328.62,648.929 332.5,642C 438.856,634.555 545.19,627.221 651.5,620C 654.442,618.876 657.442,618.542 660.5,619C 661.022,619.561 661.355,620.228 661.5,621C 660.571,622.077 659.904,623.244 659.5,624.5 Z"/></g>
<g><path style="opacity:0.035" fill="#f8060f" d="M 659.5,624.5 C 659.068,625.71 658.401,626.71 657.5,627.5C 657.285,625.821 657.952,624.821 659.5,624.5 Z"/></g>
<g><path style="opacity:0.149" fill="#f9050b" d="M 320.5,662.5 C 320.715,664.179 320.048,665.179 318.5,665.5C 318.932,664.29 319.599,663.29 320.5,662.5 Z"/></g>
<g><path style="opacity:0.943" fill="#e11736" d="M 1094.5,804.5 C 1108.83,804.5 1123.17,804.5 1137.5,804.5C 1137.67,881.501 1137.5,958.501 1137,1035.5C 1123.2,1036.83 1109.36,1036.83 1095.5,1035.5C 1094.5,958.503 1094.17,881.503 1094.5,804.5 Z"/></g>
<g><path style="opacity:0.981" fill="#e21836" d="M 851.5,876.5 C 851.427,878.027 852.094,879.027 853.5,879.5C 854.167,880.833 855.167,881.833 856.5,882.5C 857.496,882.414 858.329,882.748 859,883.5C 861.655,887.813 864.655,891.813 868,895.5C 870.841,899.539 873.007,903.873 874.5,908.5C 874.285,910.179 874.952,911.179 876.5,911.5C 877.79,914.642 878.79,917.975 879.5,921.5C 878.115,922.947 878.448,923.947 880.5,924.5C 888.761,965.506 877.094,999.506 845.5,1026.5C 837.052,1031.92 828.052,1036.09 818.5,1039C 804.167,1039.67 789.833,1039.67 775.5,1039C 768.712,1036.37 762.046,1033.37 755.5,1030C 751.953,1027.62 748.953,1024.78 746.5,1021.5C 746.027,1020.09 745.027,1019.43 743.5,1019.5C 743.189,1018.52 742.522,1017.86 741.5,1017.5C 740.814,1023.39 740.147,1029.22 739.5,1035C 727.258,1035.18 715.091,1035.68 703,1036.5C 702.333,1035.83 701.667,1035.17 701,1034.5C 700.5,957.834 700.333,881.167 700.5,804.5C 715.167,804.5 729.833,804.5 744.5,804.5C 744.167,827.843 744.5,851.176 745.5,874.5C 770.29,855.479 797.623,851.146 827.5,861.5C 836.321,865.347 844.321,870.347 851.5,876.5 Z M 836.5,967.5 C 836.567,968.959 836.234,970.292 835.5,971.5C 824.387,994.499 806.054,1004 780.5,1000C 773.966,997.586 767.633,994.753 761.5,991.5C 761.068,990.29 760.401,989.29 759.5,988.5C 752.821,983.385 748.487,977.052 746.5,969.5C 744.36,965.024 742.86,960.357 742,955.5C 740.828,946.834 741.661,938.501 744.5,930.5C 744.557,929.391 744.89,928.391 745.5,927.5C 746.167,925.5 746.833,923.5 747.5,921.5C 748.5,920.5 749.5,919.5 750.5,918.5C 756.422,908.853 764.756,902.02 775.5,898C 801.898,891.698 821.732,900.198 835,923.5C 839.294,935.455 840.627,947.788 839,960.5C 838.847,963.151 838.013,965.484 836.5,967.5 Z"/></g>
<g><path style="opacity:0.961" fill="#e21735" d="M 360.5,876.5 C 360.427,878.027 361.094,879.027 362.5,879.5C 363.167,880.833 364.167,881.833 365.5,882.5C 365.973,883.906 366.973,884.573 368.5,884.5C 389.11,908.567 396.443,936.567 390.5,968.5C 346.167,968.5 301.833,968.5 257.5,968.5C 268.648,993.899 287.982,1004.23 315.5,999.5C 327.453,996.527 336.453,989.693 342.5,979C 357.496,978.5 372.496,978.333 387.5,978.5C 379.065,1003.24 363.065,1021.41 339.5,1033C 301.107,1047.66 267.107,1041.16 237.5,1013.5C 237.715,1011.82 237.048,1010.82 235.5,1010.5C 219.736,993.865 211.736,973.532 211.5,949.5C 211.673,934.444 214.84,920.11 221,906.5C 223.705,901.985 226.538,897.652 229.5,893.5C 231.048,893.179 231.715,892.179 231.5,890.5C 234.531,885.84 238.197,881.84 242.5,878.5C 243.833,878.5 244.5,877.833 244.5,876.5C 268.988,856.855 296.655,850.688 327.5,858C 339.839,861.852 350.839,868.019 360.5,876.5 Z M 295.5,895.5 C 323.191,893.331 340.858,905.498 348.5,932C 317.835,932.5 287.168,932.667 256.5,932.5C 260.662,916.325 270.329,904.825 285.5,898C 288.991,897.262 292.325,896.429 295.5,895.5 Z"/></g>
<g><path style="opacity:0.962" fill="#e21736" d="M 1881.5,958.5 C 1880.41,958.62 1879.75,959.287 1879.5,960.5C 1879.54,961.416 1879.88,962.083 1880.5,962.5C 1880.64,964.262 1880.31,965.929 1879.5,967.5C 1835.17,968.333 1790.84,968.833 1746.5,969C 1758.55,993.852 1778.21,1004.02 1805.5,999.5C 1813.47,997.431 1820.3,993.431 1826,987.5C 1827.57,984.178 1829.74,981.344 1832.5,979C 1847.16,978.5 1861.83,978.333 1876.5,978.5C 1873.67,991.01 1867.67,1001.68 1858.5,1010.5C 1856.95,1010.82 1856.29,1011.82 1856.5,1013.5C 1855.5,1014.17 1854.5,1014.83 1853.5,1015.5C 1851.81,1015.86 1850.81,1016.86 1850.5,1018.5C 1827.92,1038.11 1801.59,1044.95 1771.5,1039C 1727.68,1025.33 1704.01,995.496 1700.5,949.5C 1701.12,932.069 1705.62,915.736 1714,900.5C 1716.75,897.266 1719.25,893.932 1721.5,890.5C 1723.05,890.179 1723.71,889.179 1723.5,887.5C 1752.27,856.066 1786.77,847.399 1827,861.5C 1866.37,881.679 1884.54,914.012 1881.5,958.5 Z M 1835.5,924.5 C 1836.11,925.391 1836.44,926.391 1836.5,927.5C 1837.04,929.117 1837.37,930.784 1837.5,932.5C 1806.83,932.667 1776.16,932.5 1745.5,932C 1747.58,927.526 1749.58,923.026 1751.5,918.5C 1752.4,917.71 1753.07,916.71 1753.5,915.5C 1754.83,913.833 1756.17,912.167 1757.5,910.5C 1758.5,910.167 1759.17,909.5 1759.5,908.5C 1773.23,896.252 1789.23,892.419 1807.5,897C 1821.02,902.02 1830.35,911.187 1835.5,924.5 Z"/></g>
<g><path style="opacity:0.966" fill="#e21836" d="M 103.5,905.5 C 102.167,905.5 101.5,906.167 101.5,907.5C 96.6444,914.974 93.8111,923.641 93,933.5C 92.6667,967.167 92.3333,1000.83 92,1034.5C 77.9121,1035.49 63.7454,1035.82 49.5,1035.5C 49.5,977.5 49.5,919.5 49.5,861.5C 62.5043,861.333 75.5043,861.5 88.5,862C 89.3002,866.08 89.8002,870.247 90,874.5C 107.563,857.689 128.397,852.189 152.5,858C 169.39,863.23 182.89,873.063 193,887.5C 197.593,897.902 200.927,908.568 203,919.5C 203.667,957.833 203.667,996.167 203,1034.5C 188.912,1035.49 174.745,1035.82 160.5,1035.5C 160.667,1002.17 160.5,968.832 160,935.5C 158.741,923.493 154.574,912.659 147.5,903C 138.875,896.776 129.209,894.776 118.5,897C 112.887,898.805 107.887,901.638 103.5,905.5 Z"/></g>
<g><path style="opacity:0.963" fill="#e21736" d="M 965.5,856.5 C 988.643,853.863 1009.31,859.696 1027.5,874C 1030.72,876.214 1033.22,879.048 1035,882.5C 1035.5,875.508 1035.67,868.508 1035.5,861.5C 1048.75,861.177 1061.91,861.511 1075,862.5C 1075.67,919.833 1075.67,977.167 1075,1034.5C 1074,1035.17 1073,1035.83 1072,1036.5C 1059.91,1035.51 1047.75,1035.18 1035.5,1035.5C 1035.67,1028.83 1035.5,1022.16 1035,1015.5C 1010.65,1039.22 981.979,1046.22 949,1036.5C 917.864,1023.69 899.197,1000.69 893,967.5C 887.026,928.071 899.193,895.904 929.5,871C 935.451,867.756 941.451,864.589 947.5,861.5C 953.784,860.101 959.784,858.435 965.5,856.5 Z M 1029.5,969.5 C 1029.44,970.609 1029.11,971.609 1028.5,972.5C 1028.44,973.609 1028.11,974.609 1027.5,975.5C 1026.6,976.29 1025.93,977.29 1025.5,978.5C 1018.86,989.511 1009.2,996.677 996.5,1000C 979.763,1002.72 964.763,998.891 951.5,988.5C 951.144,986.81 950.144,985.81 948.5,985.5C 944.727,979.616 941.227,973.616 938,967.5C 931.858,944.573 937.025,924.407 953.5,907C 967.525,896.503 983.192,893.503 1000.5,898C 1019.99,906.146 1031.15,920.646 1034,941.5C 1034.67,945.833 1034.67,950.167 1034,954.5C 1033.06,959.722 1031.56,964.722 1029.5,969.5 Z"/></g>
<g><path style="opacity:0.975" fill="#e21735" d="M 1221.5,856.5 C 1244.64,853.863 1265.31,859.696 1283.5,874C 1286.34,876.511 1288.84,879.344 1291,882.5C 1291.5,875.508 1291.67,868.508 1291.5,861.5C 1304.5,861.5 1317.5,861.5 1330.5,861.5C 1330.67,919.501 1330.5,977.501 1330,1035.5C 1318.13,1035.2 1306.13,1035.53 1294,1036.5C 1293.59,1036.04 1293.09,1035.71 1292.5,1035.5C 1291.67,1028.86 1291.17,1022.19 1291,1015.5C 1279.77,1027.03 1266.27,1034.86 1250.5,1039C 1199.83,1044.93 1166.66,1023.76 1151,975.5C 1142.4,940.33 1149.9,908.996 1173.5,881.5C 1187.07,868.329 1203.07,859.995 1221.5,856.5 Z M 1286.5,928.5 C 1287.11,929.391 1287.44,930.391 1287.5,931.5C 1288.04,937.312 1289.04,942.978 1290.5,948.5C 1287,985.848 1266.66,1003.01 1229.5,1000C 1205.49,991.745 1192.49,974.745 1190.5,949C 1191.65,932.523 1197.98,918.523 1209.5,907C 1221.76,897.103 1235.76,893.769 1251.5,897C 1269.01,901.013 1280.68,911.513 1286.5,928.5 Z"/></g>
<g><path style="opacity:0.949" fill="#e21735" d="M 1397.5,870.5 C 1399.05,870.179 1399.71,869.179 1399.5,867.5C 1419.96,855.165 1441.46,853.165 1464,861.5C 1488.53,873.324 1501.86,892.657 1504,919.5C 1504.5,958.165 1504.67,996.832 1504.5,1035.5C 1490.25,1035.82 1476.09,1035.49 1462,1034.5C 1461.95,998.14 1461.28,961.807 1460,925.5C 1453.3,899.042 1437.13,890.709 1411.5,900.5C 1400.48,908.202 1394.98,918.869 1395,932.5C 1394.67,966.5 1394.33,1000.5 1394,1034.5C 1379.67,1035.83 1365.33,1035.83 1351,1034.5C 1350.33,977.167 1350.33,919.833 1351,862.5C 1364.09,861.345 1377.26,861.178 1390.5,862C 1391.3,866.08 1391.8,870.247 1392,874.5C 1393.45,872.536 1395.28,871.203 1397.5,870.5 Z"/></g>
<g><path style="opacity:0.971" fill="#e21735" d="M 1650.5,864.5 C 1650.28,865.675 1650.61,866.675 1651.5,867.5C 1652.11,867.376 1652.44,867.043 1652.5,866.5C 1666.83,873.645 1678.16,883.978 1686.5,897.5C 1686.29,899.179 1686.95,900.179 1688.5,900.5C 1692.8,906.449 1695.47,913.116 1696.5,920.5C 1680.5,920.667 1664.5,920.5 1648.5,920C 1646.34,916.931 1644.34,913.765 1642.5,910.5C 1642.5,909.167 1641.83,908.5 1640.5,908.5C 1640.17,907.833 1639.83,907.167 1639.5,906.5C 1639.03,905.094 1638.03,904.427 1636.5,904.5C 1632.07,900.962 1627.07,898.462 1621.5,897C 1597.65,892.979 1579.65,901.146 1567.5,921.5C 1565.45,922.053 1565.11,923.053 1566.5,924.5C 1563.32,931.055 1561.65,938.055 1561.5,945.5C 1558.98,947.002 1558.98,948.335 1561.5,949.5C 1562.61,975.078 1575.27,991.745 1599.5,999.5C 1613.04,1002.96 1625.37,1000.46 1636.5,992C 1641.23,987.608 1645.56,982.941 1649.5,978C 1665.16,977.5 1680.83,977.333 1696.5,977.5C 1694.62,985.637 1691.45,993.304 1687,1000.5C 1683.33,1004.01 1680.16,1008.01 1677.5,1012.5C 1673.43,1016.25 1669.43,1019.91 1665.5,1023.5C 1664.38,1022.24 1663.71,1022.58 1663.5,1024.5C 1641.47,1039.17 1617.14,1044.01 1590.5,1039C 1535.13,1020.82 1511.8,982.984 1520.5,925.5C 1525.05,907.366 1534.39,892.366 1548.5,880.5C 1550.05,880.179 1550.71,879.179 1550.5,877.5C 1581.2,854.381 1614.53,850.048 1650.5,864.5 Z"/></g>
<g><path style="opacity:0.97" fill="#e21735" d="M 453.5,950.5 C 452.115,951.947 452.448,952.947 454.5,953.5C 455.491,957.101 456.658,960.768 458,964.5C 466.873,930.472 475.873,896.472 485,862.5C 496.419,861.512 507.919,861.179 519.5,861.5C 521.389,869.134 523.389,876.8 525.5,884.5C 524.115,885.947 524.448,886.947 526.5,887.5C 533.319,913.412 540.152,939.078 547,964.5C 553.817,941.082 560.984,917.416 568.5,893.5C 569.586,893.38 570.253,892.713 570.5,891.5C 570.253,890.287 569.586,889.62 568.5,889.5C 570.299,885.952 571.632,882.285 572.5,878.5C 574.552,877.947 574.885,876.947 573.5,875.5C 575.298,871.008 576.632,866.341 577.5,861.5C 592.504,861.333 607.504,861.5 622.5,862C 622.957,862.414 623.291,862.914 623.5,863.5C 610.084,901.75 596.084,939.75 581.5,977.5C 579.223,982.996 577.556,988.663 576.5,994.5C 575.5,994.5 574.5,994.5 573.5,994.5C 573.5,995.833 573.5,997.167 573.5,998.5C 569.795,1010.6 565.462,1022.6 560.5,1034.5C 559.522,1034.98 558.689,1035.64 558,1036.5C 550.068,1035.85 542.235,1035.18 534.5,1034.5C 534.843,1032.52 534.176,1031.18 532.5,1030.5C 527.313,1013.39 522.313,996.392 517.5,979.5C 518.885,978.053 518.552,977.053 516.5,976.5C 511.349,959.905 506.516,943.238 502,926.5C 497.463,943.325 492.63,959.992 487.5,976.5C 485.448,977.053 485.115,978.053 486.5,979.5C 481.266,997.647 476.266,1015.48 471.5,1033C 470.833,1033.67 470.167,1034.33 469.5,1035C 461.588,1035.18 453.754,1035.68 446,1036.5C 445.311,1035.64 444.478,1034.98 443.5,1034.5C 438.547,1020.63 433.214,1006.97 427.5,993.5C 428.885,992.053 428.552,991.053 426.5,990.5C 411.841,948.249 396.841,906.415 381.5,865C 381.667,864.167 381.833,863.333 382,862.5C 397,861.167 412,861.167 427,862.5C 435.853,891.931 444.686,921.264 453.5,950.5 Z"/></g>
<g><path style="opacity:0.353" fill="#ee0d1e" d="M 1650.5,864.5 C 1651.17,865.167 1651.83,865.833 1652.5,866.5C 1652.44,867.043 1652.11,867.376 1651.5,867.5C 1650.61,866.675 1650.28,865.675 1650.5,864.5 Z"/></g>
<g><path style="opacity:0.624" fill="#ee0e20" d="M 1399.5,867.5 C 1399.71,869.179 1399.05,870.179 1397.5,870.5C 1397.93,869.29 1398.6,868.29 1399.5,867.5 Z"/></g>
<g><path style="opacity:0.259" fill="#f60710" d="M 244.5,876.5 C 244.5,877.833 243.833,878.5 242.5,878.5C 242.833,877.5 243.5,876.833 244.5,876.5 Z"/></g>
<g><path style="opacity:0.267" fill="#f30917" d="M 360.5,876.5 C 361.906,876.973 362.573,877.973 362.5,879.5C 361.094,879.027 360.427,878.027 360.5,876.5 Z"/></g>
<g><path style="opacity:0.486" fill="#f10b1a" d="M 573.5,875.5 C 574.885,876.947 574.552,877.947 572.5,878.5C 573.11,877.609 573.443,876.609 573.5,875.5 Z"/></g>
<g><path style="opacity:0.267" fill="#f20a17" d="M 851.5,876.5 C 852.906,876.973 853.573,877.973 853.5,879.5C 852.094,879.027 851.427,878.027 851.5,876.5 Z"/></g>
<g><path style="opacity:0.031" fill="#f50814" d="M 362.5,879.5 C 364.5,879.5 365.5,880.5 365.5,882.5C 364.167,881.833 363.167,880.833 362.5,879.5 Z"/></g>
<g><path style="opacity:0.031" fill="#f40814" d="M 853.5,879.5 C 855.5,879.5 856.5,880.5 856.5,882.5C 855.167,881.833 854.167,880.833 853.5,879.5 Z"/></g>
<g><path style="opacity:0.494" fill="#f00d1b" d="M 1550.5,877.5 C 1550.71,879.179 1550.05,880.179 1548.5,880.5C 1548.93,879.29 1549.6,878.29 1550.5,877.5 Z"/></g>
<g><path style="opacity:0.047" fill="#f50712" d="M 365.5,882.5 C 367.027,882.427 368.027,883.094 368.5,884.5C 366.973,884.573 365.973,883.906 365.5,882.5 Z"/></g>
<g><path style="opacity:0.424" fill="#f00c1b" d="M 525.5,884.5 C 525.557,885.609 525.89,886.609 526.5,887.5C 524.448,886.947 524.115,885.947 525.5,884.5 Z"/></g>
<g><path style="opacity:0.514" fill="#ed0e1e" d="M 1723.5,887.5 C 1723.71,889.179 1723.05,890.179 1721.5,890.5C 1721.93,889.29 1722.6,888.29 1723.5,887.5 Z"/></g>
<g><path style="opacity:0.559" fill="#ed0f23" d="M 568.5,889.5 C 569.586,889.62 570.253,890.287 570.5,891.5C 570.253,892.713 569.586,893.38 568.5,893.5C 568.5,892.167 568.5,890.833 568.5,889.5 Z"/></g>
<g><path style="opacity:0.455" fill="#f00d1d" d="M 231.5,890.5 C 231.715,892.179 231.048,893.179 229.5,893.5C 229.932,892.29 230.599,891.29 231.5,890.5 Z"/></g>
<g><path style="opacity:0.267" fill="#ef0c1d" d="M 1686.5,897.5 C 1687.4,898.29 1688.07,899.29 1688.5,900.5C 1686.95,900.179 1686.29,899.179 1686.5,897.5 Z"/></g>
<g><path style="opacity:0.282" fill="#f50611" d="M 1636.5,904.5 C 1638.03,904.427 1639.03,905.094 1639.5,906.5C 1637.97,906.573 1636.97,905.906 1636.5,904.5 Z"/></g>
<g><path style="opacity:0.047" fill="#f70615" d="M 103.5,905.5 C 103.167,906.5 102.5,907.167 101.5,907.5C 101.5,906.167 102.167,905.5 103.5,905.5 Z"/></g>
<g><path style="opacity:0.29" fill="#f60711" d="M 1640.5,908.5 C 1641.83,908.5 1642.5,909.167 1642.5,910.5C 1641.5,910.167 1640.83,909.5 1640.5,908.5 Z"/></g>
<g><path style="opacity:0.047" fill="#f7070f" d="M 1759.5,908.5 C 1759.17,909.5 1758.5,910.167 1757.5,910.5C 1757.5,909.167 1758.17,908.5 1759.5,908.5 Z"/></g>
<g><path style="opacity:0.212" fill="#f30914" d="M 874.5,908.5 C 875.401,909.29 876.068,910.29 876.5,911.5C 874.952,911.179 874.285,910.179 874.5,908.5 Z"/></g>
<g><path style="opacity:0.016" fill="#f20916" d="M 1753.5,915.5 C 1753.07,916.71 1752.4,917.71 1751.5,918.5C 1751.29,916.821 1751.95,915.821 1753.5,915.5 Z"/></g>
<g><path style="opacity:0.196" fill="#ed0f1f" d="M 750.5,918.5 C 749.5,919.5 748.5,920.5 747.5,921.5C 747.5,920.5 747.5,919.5 747.5,918.5C 748.5,918.5 749.5,918.5 750.5,918.5 Z"/></g>
<g><path style="opacity:0.545" fill="#ee0e20" d="M 879.5,921.5 C 879.557,922.609 879.89,923.609 880.5,924.5C 878.448,923.947 878.115,922.947 879.5,921.5 Z"/></g>
<g><path style="opacity:0.306" fill="#ee0c1c" d="M 1567.5,921.5 C 1566.89,922.391 1566.56,923.391 1566.5,924.5C 1565.11,923.053 1565.45,922.053 1567.5,921.5 Z"/></g>
<g><path style="opacity:0.631" fill="#ee0e20" d="M 1835.5,924.5 C 1837.55,925.053 1837.89,926.053 1836.5,927.5C 1836.44,926.391 1836.11,925.391 1835.5,924.5 Z"/></g>
<g><path style="opacity:0.259" fill="#f40714" d="M 745.5,927.5 C 744.89,928.391 744.557,929.391 744.5,930.5C 743.115,929.053 743.448,928.053 745.5,927.5 Z"/></g>
<g><path style="opacity:0.188" fill="#f30915" d="M 1286.5,928.5 C 1288.55,929.053 1288.89,930.053 1287.5,931.5C 1287.44,930.391 1287.11,929.391 1286.5,928.5 Z"/></g>
<g><path style="opacity:0.753" fill="#ef0e20" d="M 1561.5,945.5 C 1561.5,946.833 1561.5,948.167 1561.5,949.5C 1558.98,948.335 1558.98,947.002 1561.5,945.5 Z"/></g>
<g><path style="opacity:0.369" fill="#f10b18" d="M 453.5,950.5 C 453.557,951.609 453.89,952.609 454.5,953.5C 452.448,952.947 452.115,951.947 453.5,950.5 Z"/></g>
<g><path style="opacity:0.439" fill="#ee0e20" d="M 1881.5,958.5 C 1880.77,959.708 1880.43,961.041 1880.5,962.5C 1879.88,962.083 1879.54,961.416 1879.5,960.5C 1879.75,959.287 1880.41,958.62 1881.5,958.5 Z"/></g>
<g><path style="opacity:0.306" fill="#ee0d1f" d="M 836.5,967.5 C 837.124,967.917 837.457,968.584 837.5,969.5C 837.253,970.713 836.586,971.38 835.5,971.5C 836.234,970.292 836.567,968.959 836.5,967.5 Z"/></g>
<g><path style="opacity:0.243" fill="#f40813" d="M 1029.5,969.5 C 1030.89,970.947 1030.55,971.947 1028.5,972.5C 1029.11,971.609 1029.44,970.609 1029.5,969.5 Z"/></g>
<g><path style="opacity:0.584" fill="#ef0e1f" d="M 516.5,976.5 C 518.552,977.053 518.885,978.053 517.5,979.5C 517.443,978.391 517.11,977.391 516.5,976.5 Z"/></g>
<g><path style="opacity:0.416" fill="#f00c1c" d="M 487.5,976.5 C 486.89,977.391 486.557,978.391 486.5,979.5C 485.115,978.053 485.448,977.053 487.5,976.5 Z"/></g>
<g><path style="opacity:0.235" fill="#f10b1a" d="M 1027.5,975.5 C 1027.71,977.179 1027.05,978.179 1025.5,978.5C 1025.93,977.29 1026.6,976.29 1027.5,975.5 Z"/></g>
<g><path style="opacity:0.165" fill="#f5081f" d="M 948.5,985.5 C 950.144,985.81 951.144,986.81 951.5,988.5C 949.856,988.19 948.856,987.19 948.5,985.5 Z"/></g>
<g><path style="opacity:0.204" fill="#ef0b1f" d="M 759.5,988.5 C 760.401,989.29 761.068,990.29 761.5,991.5C 759.952,991.179 759.285,990.179 759.5,988.5 Z"/></g>
<g><path style="opacity:0.047" fill="#f9040a" d="M 426.5,990.5 C 428.552,991.053 428.885,992.053 427.5,993.5C 427.443,992.391 427.11,991.391 426.5,990.5 Z"/></g>
<g><path style="opacity:0.318" fill="#ef0e1e" d="M 576.5,994.5 C 575.341,995.74 574.341,997.074 573.5,998.5C 573.5,997.167 573.5,995.833 573.5,994.5C 574.5,994.5 575.5,994.5 576.5,994.5 Z"/></g>
<g><path style="opacity:0.157" fill="#ed0a1b" d="M 1858.5,1010.5 C 1858.07,1011.71 1857.4,1012.71 1856.5,1013.5C 1856.29,1011.82 1856.95,1010.82 1858.5,1010.5 Z"/></g>
<g><path style="opacity:0.016" fill="#ee0f18" d="M 235.5,1010.5 C 237.048,1010.82 237.715,1011.82 237.5,1013.5C 236.599,1012.71 235.932,1011.71 235.5,1010.5 Z"/></g>
<g><path style="opacity:0.118" fill="#f00c1b" d="M 1853.5,1015.5 C 1853.19,1017.14 1852.19,1018.14 1850.5,1018.5C 1850.81,1016.86 1851.81,1015.86 1853.5,1015.5 Z"/></g>
<g><path style="opacity:0.259" fill="#f60712" d="M 743.5,1019.5 C 745.027,1019.43 746.027,1020.09 746.5,1021.5C 744.973,1021.57 743.973,1020.91 743.5,1019.5 Z"/></g>
<g><path style="opacity:0.031" fill="#f40913" d="M 1665.5,1023.5 C 1664.83,1023.83 1664.17,1024.17 1663.5,1024.5C 1663.71,1022.58 1664.38,1022.24 1665.5,1023.5 Z"/></g>
<g><path style="opacity:0.576" fill="#ed0f22" d="M 532.5,1030.5 C 534.176,1031.18 534.843,1032.52 534.5,1034.5C 532.824,1033.82 532.157,1032.48 532.5,1030.5 Z"/></g>
</svg>
